<svg width="33" height="32" viewBox="0 0 33 32" fill="none" xmlns="http://www.w3.org/2000/svg">
        <path d="M20.6478 0.392334C21.707 0.407054 22.7175 0.608014 23.6612 1.08801C24.4932 1.51393 25.1716 2.10945 25.6346 2.93025C25.9356 3.4721 26.133 4.06525 26.2167 4.67937C26.3889 5.85825 26.2148 6.99873 25.826 8.11393C25.5975 8.76801 25.2814 9.38145 24.939 9.98401C24.2414 11.2106 23.345 12.2736 22.3025 13.216C20.9649 14.4263 19.4982 15.4855 17.9287 16.3747C17.3207 16.7181 16.6903 17.0064 16.0122 17.1827C15.5968 17.2949 15.1679 17.3492 14.7377 17.344C14.1713 17.3325 13.7281 17.0746 13.3834 16.64C13.0652 16.25 12.9012 15.7567 12.9226 15.2538C12.9264 15.1139 12.9466 14.9749 12.9828 14.8397C13.1879 14.1111 13.4666 13.4131 13.8833 12.7767C14.2017 12.2906 14.5812 11.8589 15.0775 11.5501C15.6295 11.2064 16.2295 11.0595 16.8785 11.2013C17.0814 11.2489 17.2723 11.3376 17.4394 11.4621C17.8666 11.7674 17.8442 12.2464 17.6391 12.5523C17.4634 12.8182 17.2669 13.0697 17.0516 13.3047C16.6868 13.6976 16.2993 14.0691 15.921 14.4493C15.5863 14.7856 15.2718 15.1386 15.0167 15.5408C14.8846 15.7495 14.7626 15.9623 14.7262 16.2128C14.6801 16.5271 14.8433 16.7411 15.1604 16.7706C15.3245 16.784 15.4896 16.7674 15.6478 16.7216C16.1351 16.5869 16.5876 16.3696 17.0321 16.1354C17.7175 15.7728 18.3502 15.3296 18.9668 14.8621C19.7143 14.2954 20.441 13.7043 21.1108 13.0471C21.8737 12.2992 22.5537 11.4864 23.074 10.5485C23.4542 9.86369 23.7342 9.14049 23.8586 8.36481C23.9687 7.68161 23.9073 7.01601 23.5908 6.38881C23.4384 6.0788 23.2 5.81919 22.9041 5.64097C22.7674 5.55872 22.6167 5.50251 22.4596 5.47521C21.8878 5.37377 21.3345 5.45697 20.7908 5.63841C20.2241 5.82785 19.6983 6.10433 19.1873 6.40641C18.0782 7.06433 16.9678 7.72193 15.9108 8.46273C15.3809 8.83393 14.8673 9.22881 14.3479 9.61473C13.8788 9.96353 13.4129 10.3165 12.9002 10.6016C12.4842 10.8385 12.034 11.0094 11.5655 11.1082C10.985 11.2259 10.45 11.1165 9.95848 10.801C9.4484 10.4736 9.09128 10.0243 8.93448 9.42977C8.83464 9.05441 8.874 8.68225 8.96008 8.31169C9.08584 7.76769 9.32456 7.27489 9.62216 6.80769C10.3582 5.65377 11.2836 4.67489 12.3598 3.83809C13.9546 2.59809 15.7095 1.64321 17.6078 0.952334C18.5823 0.595845 19.6101 0.406516 20.6478 0.392334Z" fill="#FFFFFF"/>
        <path d="M7.52651 26.7744C7.52107 26.4122 7.47979 26.0864 7.27051 25.8039C7.1686 25.6673 7.02751 25.5651 6.86603 25.5107C6.45003 25.3616 6.02635 25.3792 5.61323 25.5069C5.28203 25.6093 4.96267 25.7488 4.63851 25.8733C4.57451 25.897 4.51627 25.9274 4.43883 25.9619C4.28619 25.5834 4.13611 25.216 3.97899 24.832C4.20651 24.7242 4.42091 24.6141 4.64203 24.5197C5.15147 24.3018 5.67979 24.1523 6.23531 24.1187C6.79083 24.0851 7.33899 24.1146 7.84459 24.384C8.41643 24.6867 8.82923 25.1239 9.00203 25.76C9.02696 25.8433 9.04189 25.9292 9.04651 26.016C9.06859 26.8419 9.09835 27.6679 9.10187 28.4938C9.10411 29.0583 9.06699 29.6231 9.05035 30.1879C9.04738 30.2653 9.01512 30.3387 8.96011 30.3933C8.56491 30.8285 8.08139 31.1293 7.53355 31.3312C6.94609 31.5456 6.32048 31.6355 5.69643 31.5952C5.12043 31.5632 4.62315 31.3274 4.20267 30.936C3.78219 30.5447 3.48843 30.072 3.40651 29.4928C3.29451 28.6995 3.52331 28.0112 4.09355 27.4448C4.46027 27.0807 4.91211 26.8925 5.42123 26.8259C5.98443 26.7527 6.54955 26.7722 7.11467 26.7738L7.52651 26.7744ZM7.45259 28.064C7.41939 28.0575 7.38584 28.0529 7.35211 28.0503C7.16011 28.0464 6.96587 28.0397 6.77291 28.0426C6.54155 28.0461 6.30923 28.0471 6.07915 28.0688C5.84139 28.0915 5.61067 28.161 5.42635 28.3197C5.12043 28.5834 5.02955 28.9277 5.10411 29.3159C5.19691 29.7959 5.46507 30.1312 5.94315 30.2739C6.18966 30.3477 6.45067 30.3587 6.70251 30.3059C6.93659 30.2631 7.15493 30.1583 7.33483 30.0026C7.36529 29.979 7.39033 29.9491 7.40827 29.915C7.42621 29.8809 7.43663 29.8433 7.43883 29.8048C7.44619 29.6362 7.46795 29.4679 7.46923 29.2992C7.47179 28.913 7.46603 28.5267 7.46283 28.1405C7.46091 28.1148 7.45749 28.0893 7.45259 28.064Z" fill="#FFFFFF"/>
        <path d="M26.7736 28.032C25.4008 28.032 24.0536 28.0026 22.6875 28.0384C22.6945 28.1344 22.6987 28.2253 22.7073 28.3139C22.7425 28.6765 22.8206 29.0288 22.9739 29.3613C23.0931 29.6325 23.2781 29.8696 23.5121 30.0512C23.8833 30.3331 24.307 30.3792 24.7515 30.3219C25.1188 30.2746 25.4609 30.1402 25.802 30.0048C25.9585 29.9431 26.1137 29.8768 26.282 29.808C26.442 30.1427 26.5988 30.4717 26.762 30.8103C26.732 30.832 26.7038 30.8563 26.6724 30.8743C26.0068 31.2691 25.292 31.5235 24.5198 31.5907C23.8158 31.6519 23.1438 31.5363 22.5358 31.1469C22.1217 30.8816 21.8318 30.5069 21.5892 30.0877C21.2905 29.5662 21.1096 28.9855 21.0593 28.3866C20.9578 27.2945 21.1897 26.2778 21.755 25.3363C22.1492 24.6819 22.7377 24.3264 23.4744 24.2039C24.1515 24.0848 24.849 24.2009 25.451 24.5328C25.7883 24.7155 26.0232 25.0032 26.2168 25.3258C26.4728 25.7511 26.6075 26.2199 26.6721 26.7056C26.7246 27.0973 26.7412 27.4938 26.7726 27.8896C26.7764 27.9303 26.7736 27.9725 26.7736 28.032ZM25.1096 26.7888C25.0299 26.4237 24.9755 26.0506 24.7364 25.7411C24.6166 25.5873 24.4482 25.4786 24.2587 25.4327C23.7547 25.2992 23.2481 25.5315 23.0315 26.0087C22.954 26.1786 22.9086 26.3632 22.8523 26.5421C22.827 26.6231 22.8107 26.7072 22.7905 26.7888C22.9259 26.8247 24.971 26.8263 25.1102 26.7898L25.1096 26.7888Z" fill="#FFFFFF"/>
        <path d="M17.7679 22.4547L19.4059 22.2013V24.2131C19.7695 24.2349 20.1157 24.2112 20.4639 24.2487V25.488C20.1119 25.4938 19.7672 25.4832 19.4079 25.505C19.4079 25.5747 19.4079 25.6269 19.4079 25.6791C19.4049 26.872 19.4023 28.0651 19.4002 29.2583C19.4002 29.4461 19.4152 29.6343 19.4322 29.8215C19.4591 30.1095 19.6187 30.2922 19.8978 30.3623C20.0517 30.4013 20.2098 30.4234 20.3659 30.4531L20.5227 30.4851V31.537C20.5051 31.5457 20.4864 31.5519 20.4671 31.5555C20.0021 31.5763 19.5391 31.5642 19.0895 31.4275C18.6504 31.2951 18.2843 31.0551 18.036 30.6595C17.8949 30.4355 17.8232 30.1837 17.7922 29.9235C17.7734 29.7606 17.7642 29.5967 17.7647 29.4327C17.7647 27.1671 17.7659 24.9017 17.7685 22.6365L17.7679 22.4547Z" fill="#FFFFFF"/>
        <path d="M27.674 22.456L29.258 22.1814V22.4C29.258 24.4576 29.2588 26.5152 29.2605 28.5728C29.2605 28.9494 29.2637 29.326 29.2666 29.703C29.2692 30.0748 29.4049 30.2643 29.7601 30.375C29.8808 30.4084 30.0033 30.4347 30.1271 30.4537C30.2026 30.4678 30.2791 30.4745 30.371 30.4857V31.5603C30.3624 31.5673 30.3523 31.5723 30.3415 31.5747C29.8916 31.5929 29.4436 31.5856 29.0061 31.4576C28.7411 31.3813 28.4943 31.2519 28.2807 31.0774C27.8829 30.752 27.721 30.3158 27.6794 29.824C27.6673 29.68 27.6689 29.5344 27.6692 29.3897C27.6692 27.1388 27.6708 24.8882 27.674 22.6377V22.456Z" fill="#FFFFFF"/>
        <path d="M14.5833 31.4653H12.9833C12.9814 31.3984 12.9782 31.3373 12.9779 31.2768C12.9762 30.3155 12.9748 29.3542 12.9737 28.393C12.9718 27.625 12.967 26.857 12.9673 26.089C12.9678 25.9497 12.9785 25.8107 12.9993 25.673C13.023 25.5158 13.1052 25.385 13.2195 25.2746C13.8479 24.6627 14.6009 24.296 15.4595 24.1379C15.9975 24.0393 16.549 24.0385 17.0873 24.1357C17.1158 24.1408 17.1443 24.1472 17.1721 24.1542C17.1859 24.1578 17.199 24.1645 17.2255 24.1747C17.0438 24.6368 16.8223 25.0784 16.6137 25.5149C16.3644 25.5149 16.1283 25.5075 15.8927 25.5165C15.486 25.53 15.0868 25.6294 14.7212 25.8083C14.6175 25.8592 14.5788 25.9226 14.5791 26.0419C14.5836 27.7913 14.5847 29.5406 14.5823 31.2899L14.5833 31.4653Z" fill="#FFFFFF"/>
        <path d="M11.8028 24.281C11.8197 26.6784 11.8012 29.0618 11.8165 31.4599H10.2508C10.2469 31.402 10.2393 31.3415 10.2393 31.281C10.2393 29.7738 10.2393 28.2664 10.2393 26.7588C10.2393 26.0679 10.245 25.377 10.2479 24.6861C10.2479 24.6336 10.2479 24.5812 10.2479 24.5152L11.8028 24.281Z" fill="#FFFFFF"/>
        <path d="M10.955 23.5753C10.1905 23.5734 9.71182 22.8124 10.0289 22.094C10.2238 21.6534 10.5585 21.486 11.0414 21.4889C11.6885 21.4944 12.1681 22.1379 12.0139 22.7667C11.8907 23.2691 11.4875 23.5766 10.955 23.5753Z" fill="#FFFFFF"/>
        </svg>