<svg width="30px" height="30px" viewBox="0 0 64 64" xmlns="http://www.w3.org/2000/svg" xmlns:xlink="http://www.w3.org/1999/xlink" aria-hidden="true" role="img" class="iconify iconify--emojione-monotone" preserveAspectRatio="xMidYMid meet" fill="#00cc00"><g id="SVGRepo_bgCarrier" stroke-width="0"></g><g id="SVGRepo_tracerCarrier" stroke-linecap="round" stroke-linejoin="round"></g><g id="SVGRepo_iconCarrier"><path d="M17 37.9h2v10h-2z" fill="#00cc00"></path><path d="M20 37.9h2v10h-2z" fill="#00cc00"></path><path d="M45 37.9h2v10h-2z" fill="#00cc00"></path><path d="M42 37.9h2v10h-2z" fill="#00cc00"></path><path d="M62 24.051v-2.815L31.989 2L2 21.235v2.815l1.607-1.031l.879 1.313L2 25.928v1.876h1.313v1.842H2v1.877h2.82v1.95h.68v22.742h-.68v2.035H3.5v1.875H2V62h60v-1.875h-1.5V58.25h-1.32v-2.035h-.68V33.473h.68v-1.95H62v-1.877h-1.313v-1.842H62v-1.876l-2.487-1.595l.879-1.313L62 24.051zM31.989 4.814L59.128 22.21l-.878 1.313L31.989 6.691L5.75 23.522l-.879-1.313L31.989 4.814zm24.929 21.114H7.082L31.989 9.482l24.929 16.446zM13.5 56.215V54.5H17v-1.875h9.074v-.555h.556v-9.808c0-7.103 10.74-7.214 10.74 0v9.808h.556v.555H47V54.5h3.5v1.875h-37v-.16zM16 48.9v-12h7v12h-7zm25 0v-12h7v12h-7zM6.5 33.473h6v22.742h-6V33.473zm51 22.742h-6V33.473h6v22.742zm1.688-26.569H4.813v-1.842h54.375v1.842z" fill="#00cc00"></path><path 
  d="M7 21 L7 3 L17 21 L17 3 M4 10 H20 M4 14 H20" 
  fill="none" 
  stroke="#00cc00" 
  stroke-linecap="round" 
  stroke-linejoin="round" 
  stroke-width="2.5"
  transform="scale(0.6) translate(39,19)"
></path>
<path d="M7.099 34.384h.708v20.98h-.708z" fill="#00cc00"></path><path d="M11.192 34.384h.708v20.98h-.708z" fill="#00cc00"></path><path d="M9.828 34.384h.707v20.98h-.707z" fill="#00cc00"></path><path d="M8.464 34.384h.707v20.98h-.707z" fill="#00cc00"></path><path d="M52.099 34.384h.708v20.98h-.708z" fill="#00cc00"></path><path d="M56.192 34.384h.708v20.98h-.708z" fill="#00cc00"></path><path d="M54.828 34.384h.707v20.98h-.707z" fill="#00cc00"></path><path d="M53.464 34.384h.707v20.98h-.707z" fill="#00cc00"></path><path d="M27.416 42.678v9.393h9.168v-9.393c0-6.711-9.168-6.609-9.168 0m4.139-3.793v3.652h-3.082c.122-2.199 1.537-3.424 3.082-3.652m.001 12.064h-3.091v-3.047h3.091v3.047m0-4.359h-3.091v-3.047h3.091v3.047m4.122 4.359h-3.092v-3.047h3.092v3.047m.48-6.124v2.591h-1.296v-2.591h1.296m-.48-.25h-1.065V46.59h-2.026v-3.047h3.092v1.032zm-3.092-2.038v-3.659c1.547.212 2.962 1.426 3.082 3.659h-3.082" fill="#00cc00"></path><path d="M35.695 46.467a.185.185 0 1 0-.296.149l-.077.494h.374l-.077-.494a.184.184 0 0 0 .076-.149" fill="#00cc00"></path><path d="M35.512 46.032a.531.531 0 1 0-.002-1.062a.531.531 0 0 0 .002 1.062" fill="#00cc00"></path></g></svg>


