<svg width="47" height="46" viewBox="0 0 47 46" fill="none" xmlns="http://www.w3.org/2000/svg">
        <path d="M23.2397 41.0656C33.4472 41.0656 41.722 32.7908 41.722 22.5833C41.722 12.3758 33.4472 4.10095 23.2397 4.10095C13.0321 4.10095 4.75732 12.3758 4.75732 22.5833C4.75732 32.7908 13.0321 41.0656 23.2397 41.0656Z" fill="#50B651"/>
        <path opacity="0.663" fillRule="evenodd" clipRule="evenodd" d="M41.6652 22.5313C41.6652 32.7709 33.3645 41.0716 23.1272 41.0716C12.8899 41.0716 4.58691 32.7709 4.58691 22.5313C4.58691 18.0017 4.71387 17.3282 6.49683 14.7495C6.49683 14.7495 6.40483 17.6622 8.54061 19.3955C9.86863 20.4723 11.2546 19.6949 13.7915 18.5265C16.5359 17.2615 18.7669 16.4455 20.5075 16.6608C23.1295 16.9855 31.2113 21.839 35.429 20.8725C38.7985 20.102 38.4429 12.1578 38.4429 12.1578C42.1229 15.7514 41.6652 18.1802 41.6652 22.5313Z" fill="url(#paint0_linear_1782_16516)"/>
        <path opacity="0.586" fillRule="evenodd" clipRule="evenodd" d="M31.083 36.1496C37.7883 29.8424 38.9029 22.6167 34.4267 14.4726C34.4494 14.4891 34.7264 13.5335 35.2575 11.6058C37.6397 14.4906 38.9064 18.0514 39.0576 22.288C39.0563 27.7754 36.3982 32.396 31.083 36.1496Z" fill="url(#paint1_linear_1782_16516)"/>
        <path opacity="0.744" fillRule="evenodd" clipRule="evenodd" d="M27.9024 11.644C24.6658 9.85278 20.9527 6.2496 21.4463 5.4929C21.9399 4.7362 28.3463 4.86638 31.5833 6.65762C34.8203 8.44886 37.5753 13.8221 37.0821 14.5788C36.589 15.3355 31.1389 13.4353 27.9024 11.644Z" fill="url(#paint2_radial_1782_16516)"/>
        <path fillRule="evenodd" clipRule="evenodd" d="M30.7221 27.135C28.0371 27.135 25.8604 24.8961 25.8604 22.1347C25.8604 19.3734 28.0371 17.135 30.7221 17.135C33.4071 17.135 35.5843 19.3734 35.5843 22.1347C35.5843 24.8961 33.4076 27.135 30.7221 27.135ZM30.7566 25.5489C32.4324 25.5489 33.7926 24.0203 33.7926 22.1347C33.7926 20.2492 32.4324 18.722 30.7566 18.722C29.0808 18.722 27.7206 20.2506 27.7206 22.1357C27.7206 24.0207 29.0808 25.5489 30.7566 25.5489Z" fill="white"/>
        <path fillRule="evenodd" clipRule="evenodd" d="M20.6909 13.1091H24.1943V27.0793H22.271V14.6414H20.6909V13.1091Z" fill="white"/>
        <path fillRule="evenodd" clipRule="evenodd" d="M18.0799 17.2771H19.8983V28.9436C19.8983 30.0067 18.78 31.1139 17.6903 31.5905C17.1751 31.8156 16.2244 31.9493 14.8383 31.9916V30.831C16.1941 30.6798 17.1092 30.3782 17.5836 29.9262C17.8573 29.5458 18.0284 29.1012 18.0804 28.6354V25.208C17.5943 26.2393 16.9822 26.923 16.244 27.2591C15.4768 27.6731 13.9151 27.605 13.2775 27.2591C12.6399 26.9132 11.7048 26.0024 11.276 24.6459C11.1574 24.2714 10.862 23.2525 10.8929 22.1729C10.9205 21.1448 11.2609 20.0569 11.5438 19.6098C12.0295 18.8462 12.7954 17.8898 13.9555 17.4901C14.5223 17.2947 15.5726 17.2245 17.1065 17.2794V18.4336C15.9667 18.3566 15.2555 18.3951 14.9731 18.549C14.5494 18.779 13.5931 19.0628 13.2775 21.1471C12.9619 23.2314 13.2867 24.937 14.2872 25.4711C14.6299 25.6551 15.2362 25.8727 15.7965 25.6809C16.8729 25.3129 17.8858 24.0005 17.9631 23.1113C18.041 22.2091 18.0799 20.2644 18.0799 17.2771Z" fill="white"/>
        <path fillRule="evenodd" clipRule="evenodd" d="M41.0841 26.242C39.3669 34.5105 32.04 40.7233 23.2628 40.7233C13.2104 40.7233 5.06104 32.5739 5.06104 22.5216C5.06104 16.2766 8.20605 10.7663 12.9983 7.48877C9.10443 10.718 6.62504 15.5963 6.62504 21.0514C6.62504 30.7818 14.5131 38.6694 24.243 38.6694C32.167 38.6694 38.8683 33.4387 41.0841 26.242Z" fill="url(#paint3_radial_1782_16516)"/>
        <path fillRule="evenodd" clipRule="evenodd" d="M23.2631 0.965942C11.3583 0.965942 1.70703 10.6167 1.70703 22.5215C1.70703 34.4263 11.3583 44.0776 23.2631 44.0776C35.1679 44.0776 44.8192 34.4263 44.8192 22.5215C44.8192 10.6167 35.1679 0.965942 23.2631 0.965942ZM23.2631 40.7237C13.2107 40.7237 5.06135 32.5744 5.06135 22.522C5.06135 16.277 8.20637 10.7667 12.9987 7.4892C16.021 5.41923 19.5999 4.31417 23.2631 4.3198C33.3155 4.3198 41.4648 12.4687 41.4648 22.5215C41.4655 23.7714 41.338 25.0181 41.0844 26.242C39.3672 34.5105 32.0404 40.7233 23.2631 40.7233V40.7237Z" fill="white" fill-opacity="0.35"/>
        <defs>
        <linearGradient id="paint0_linear_1782_16516" x1="22.411" y1="14.6897" x2="24.7874" y2="36.1501" gradientUnits="userSpaceOnUse">
        <stop stop-color="#123214"/>
        <stop offset="0.46" stop-color="#3E7C37"/>
        <stop offset="0.91" stop-color="#5FBB46"/>
        </linearGradient>
        <linearGradient id="paint1_linear_1782_16516" x1="36.1395" y1="13.2946" x2="36.1395" y2="30.6483" gradientUnits="userSpaceOnUse">
        <stop stop-color="white" stop-opacity="0"/>
        <stop offset="0.64" stop-color="white" stop-opacity="0.43"/>
        <stop offset="1" stop-color="white" stop-opacity="0.42"/>
        </linearGradient>
        <radialGradient id="paint2_radial_1782_16516" cx="0" cy="0" r="1" gradientUnits="userSpaceOnUse" gradientTransform="translate(29.6581 10.1574) rotate(26.7606) scale(9.13299 3.80373)">
        <stop offset="0.13" stop-color="white"/>
        <stop offset="0.29" stop-color="white" stop-opacity="0.69"/>
        <stop offset="0.45" stop-color="white" stop-opacity="0.4"/>
        <stop offset="0.59" stop-color="white" stop-opacity="0.18"/>
        <stop offset="0.69" stop-color="white" stop-opacity="0.05"/>
        <stop offset="0.74" stop-color="white" stop-opacity="0"/>
        </radialGradient>
        <radialGradient id="paint3_radial_1782_16516" cx="0" cy="0" r="1" gradientUnits="userSpaceOnUse" gradientTransform="translate(26.384 18.3278) rotate(39.84) scale(20.4668 22.3088)">
        <stop offset="0.86" stop-opacity="0"/>
        <stop offset="0.98" stop-opacity="0.47"/>
        <stop offset="1"/>
        </radialGradient>
        </defs>
        </svg>