<svg fill="#00ff04" stroke="#00ff04" width="64px" height="64px" viewBox="0 0 193.769 193.769" xmlns="http://www.w3.org/2000/svg">
  <!-- circular arrow (original) -->
  <path d="M149.203,41.104l-9.348,12.009c20.15,15.679,30.201,41.063,26.234,66.253
           c-2.906,18.484-12.838,34.73-27.964,45.748c-15.131,11.012-33.64,15.488-52.124,12.567
           c-38.157-6.008-64.32-41.938-58.322-80.098C30.585,79.097,40.52,62.85,55.648,51.835
           c13.208-9.615,28.991-14.233,45.086-13.317L87.579,52.319l9.759,9.313l20.766-21.801l0.005,0.008l9.303-9.769l-9.752-9.303
           l-0.005,0.003L95.862,0l-9.31,9.769l14.2,13.525c-19.303-0.913-38.21,4.702-54.059,16.242
           C28.28,52.943,16.19,72.717,12.65,95.221c-7.302,46.445,24.54,90.184,70.985,97.493
           c4.489,0.708,8.976,1.055,13.434,1.055c17.89,0,35.273-5.623,50.011-16.356
           c18.415-13.409,30.503-33.183,34.043-55.682C185.952,91.077,173.72,60.181,149.203,41.104z"/>
  
  <!-- Naira sign (thicker & centered) -->
  <g transform="translate(60.8845 75) scale(3)" fill="none" stroke="#00ff04" stroke-linecap="round" stroke-linejoin="round" vector-effect="non-scaling-stroke">
    <!-- main slanted strokes -->
    <polyline points="7 21 7 3 17 21 17 3" stroke-width="3"/>
    <!-- two horizontal bars -->
    <path d="M4,10H20" stroke-width="3"/>
    <path d="M4,14H20" stroke-width="3"/>
  </g>
</svg>
