<svg width="19" height="32" viewBox="0 0 19 32" fill="none" xmlns="http://www.w3.org/2000/svg">
<path fillRule="evenodd" clipRule="evenodd" d="M3.94515 28.796C4.36545 28.796 4.6726 28.885 4.86658 29.063C5.06057 29.2411 5.15767 29.518 5.15789 29.8937V31.9076H4.52744V29.9789C4.52744 29.5542 4.28932 29.3419 3.8131 29.3419C3.60739 29.3402 3.40545 29.397 3.23082 29.5057C3.26103 29.6328 3.27523 29.7631 3.27309 29.8937V31.9076H2.64264V29.9789C2.64264 29.5542 2.40452 29.3419 1.9283 29.3419C1.711 29.3421 1.49549 29.3811 1.29195 29.4572V31.9076H0.661825V29.1115C0.870446 29.0078 1.09129 28.9307 1.31915 28.8821C1.56219 28.8255 1.81079 28.796 2.06035 28.7943C2.45357 28.7943 2.74574 28.8708 2.93689 29.0237C3.25171 28.8733 3.59626 28.7955 3.94515 28.796ZM7.31794 32C6.83734 32 6.47613 31.8625 6.23431 31.5875C5.99248 31.3124 5.87146 30.9121 5.87124 30.3865C5.87124 29.3229 6.35183 28.7912 7.31302 28.7914C7.79733 28.7914 8.16149 28.9278 8.4055 29.2007C8.64951 29.4735 8.77162 29.8688 8.77184 30.3865C8.77184 30.9038 8.64579 31.302 8.3937 31.5812C8.14161 31.8604 7.78302 32 7.31794 32ZM7.31171 31.46C7.86418 31.46 8.1403 31.1022 8.14008 30.3865C8.14008 30.0307 8.07454 29.7648 7.94347 29.5889C7.8124 29.4131 7.60225 29.3251 7.31302 29.3248C7.02095 29.3248 6.81189 29.4148 6.68585 29.5948C6.5598 29.7749 6.49678 30.0387 6.49678 30.3865C6.49678 30.7341 6.56177 30.9999 6.69174 31.1841C6.82172 31.3682 7.02838 31.4598 7.31171 31.4587V31.46ZM10.8765 28.7973C11.3248 28.7973 11.6649 28.9327 11.8969 29.2036C12.1289 29.4745 12.2452 29.8582 12.2459 30.3547C12.2459 30.9533 12.1068 31.3769 11.8287 31.6255C11.5507 31.8741 11.1972 31.9989 10.7684 32C9.9079 32 9.47766 31.7695 9.47766 31.3086V27.6435H10.1022V28.9854C10.2278 28.9254 10.3597 28.8795 10.4954 28.8487C10.62 28.8167 10.7479 28.799 10.8765 28.796V28.7973ZM10.7202 31.4479C11.0479 31.4479 11.2773 31.3528 11.4083 31.1628C11.5394 30.9727 11.6049 30.7119 11.6049 30.3803C11.6049 30.0408 11.5359 29.7821 11.3978 29.604C11.2598 29.426 11.0548 29.3371 10.7828 29.3373C10.6643 29.3381 10.5464 29.3533 10.4315 29.3825C10.3166 29.4103 10.2062 29.4544 10.1039 29.5136V31.152C10.1028 31.3486 10.3082 31.4468 10.7202 31.4466V31.4479ZM12.9582 27.8025H13.6306V28.3788H12.9582V27.8025ZM12.9763 28.8821H13.6067L13.6126 31.9089H12.9763V28.8821ZM14.5 31.9089V27.7104H15.1245V31.9076L14.5 31.9089ZM17.2364 28.7888C17.7048 28.7888 18.048 28.9417 18.266 29.2475C18.484 29.5533 18.591 29.981 18.5871 30.5304H16.4729C16.4932 30.8296 16.5806 31.0572 16.7351 31.2129C16.8895 31.3687 17.1086 31.4464 17.3924 31.4462C17.7323 31.4466 18.0669 31.361 18.3649 31.1975V31.7919C18.0528 31.9306 17.6952 32 17.2921 32C16.8399 32 16.4847 31.8615 16.2265 31.5845C15.9683 31.3075 15.8393 30.9143 15.8395 30.4049C15.8395 29.8832 15.9615 29.484 16.2055 29.2072C16.4495 28.9304 16.7932 28.7909 17.2364 28.7888ZM17.2184 29.313C17.0063 29.313 16.8402 29.3697 16.7203 29.4831C16.6004 29.5965 16.5223 29.7885 16.486 30.0592H17.9448C17.9167 29.8003 17.8446 29.6113 17.7286 29.4923C17.6126 29.3732 17.4425 29.3135 17.2184 29.313ZM11.1973 4.3591C10.502 4.18718 9.96677 4.10111 9.59169 4.10089C6.79365 4.10089 4.52514 6.36186 4.52514 9.15007C4.52514 11.9383 6.79464 14.1996 9.59169 14.1996C12.3887 14.1996 14.6586 11.9386 14.6586 9.15007C14.6588 8.74272 14.6097 8.33684 14.5124 7.94127L18.5406 6.85633C18.8669 8.09683 18.9286 9.39209 18.7217 10.658C18.5148 11.9239 18.0439 13.1321 17.3396 14.2042L10.6694 26.5704H4.49008L8.88096 18.4768C8.90488 18.4322 8.83443 18.3339 8.77545 18.3286C4.08343 17.9027 0.408203 13.9705 0.408203 9.18349C0.408203 4.11137 4.53366 5.5817e-06 9.62315 5.5817e-06C10.5548 -0.00101877 11.4813 0.138955 12.3711 0.415173L11.1973 4.3591Z" fill="#006E53"/>
<path d="M9.56125 11.9272C11.095 11.9272 12.3383 10.6838 12.3383 9.15011C12.3383 7.61638 11.095 6.37305 9.56125 6.37305C8.02751 6.37305 6.78418 7.61638 6.78418 9.15011C6.78418 10.6838 8.02751 11.9272 9.56125 11.9272Z" fill="#D6E806"/>
<path fillRule="evenodd" clipRule="evenodd" d="M12.674 0.823081C12.7763 0.590036 13.0482 0.484045 13.2812 0.586344C15.5592 1.58632 17.3488 3.44736 18.2588 5.76276C18.3519 5.99964 18.2354 6.26713 17.9985 6.36023C17.7616 6.45333 17.4941 6.33678 17.401 6.09991C16.5801 4.01119 14.9657 2.33235 12.9107 1.43028C12.6777 1.32798 12.5717 1.05613 12.674 0.823081ZM12.1107 2.51693C12.2186 2.28641 12.4929 2.18697 12.7234 2.29483C14.4619 3.10824 15.8293 4.5477 16.5525 6.32556C16.6484 6.56131 16.5351 6.83016 16.2993 6.92606C16.0636 7.02197 15.7947 6.9086 15.6988 6.67285C15.0631 5.11002 13.861 3.84466 12.3328 3.12963C12.1023 3.02177 12.0028 2.74746 12.1107 2.51693ZM11.3502 4.35163C11.4556 4.12001 11.7289 4.01777 11.9605 4.12326C13.2488 4.71001 14.261 5.77125 14.7861 7.08583C14.8806 7.32218 14.7655 7.59032 14.5291 7.68474C14.2928 7.77915 14.0247 7.66409 13.9302 7.42775C13.4932 6.33363 12.6507 5.45037 11.5785 4.96202C11.3469 4.85653 11.2447 4.58325 11.3502 4.35163Z" fill="#D6E806"/>
</svg>
