<svg width="41" height="20" viewBox="0 0 41 20" fill="none" xmlns="http://www.w3.org/2000/svg">
<g clip-path="url(#clip0_1782_16510)">
<path d="M20.375 0C9.3294 0 0.375 4.47724 0.375 9.99998C0.375 15.5228 9.3294 20 20.375 20C31.4207 20 40.3751 15.5227 40.3751 9.99998C40.3751 4.47716 31.4207 0 20.375 0ZM20.375 18.4212C10.2013 18.4212 1.95379 14.6509 1.95379 9.99998C1.95379 5.34901 10.2013 1.57871 20.375 1.57871C30.5488 1.57871 38.7963 5.34901 38.7963 9.99998C38.7963 14.6509 30.5487 18.4212 20.375 18.4212ZM17.8528 8.2456V6.66657H23.495V8.2456H21.4638V13.3334H19.8844V8.2456H17.8528ZM30.3056 6.66657V13.3335H28.7269L25.8634 9.36471V13.3335H24.2846V6.66657H25.8633L28.7268 10.6353V6.66657H30.3056ZM10.3974 13.3335V6.66657H11.9762L13.7303 9.36471L15.4843 6.66657H17.0625V13.3335H15.4843V9.56252L14.2868 11.4032H13.1737L11.9762 9.56252V13.3335H10.3974Z" fill="black"/>
</g>
<defs>
<clipPath id="clip0_1782_16510">
<rect width="40" height="20" fill="white" transform="translate(0.375)"/>
</clipPath>
</defs>
</svg>
